solid vcg
  facet normal  3.568221e-01  9.341723e-01 -0.000000e+00
    outer loop
      vertex   0.000000e+00  1.618034e+00 -1.000000e+00
      vertex   0.000000e+00  1.618034e+00  1.000000e+00
      vertex   1.618034e+00  1.000000e+00  0.000000e+00
    endloop
  endfacet
  facet normal -3.568221e-01  9.341723e-01  0.000000e+00
    outer loop
      vertex   0.000000e+00  1.618034e+00  1.000000e+00
      vertex   0.000000e+00  1.618034e+00 -1.000000e+00
      vertex  -1.618034e+00  1.000000e+00  0.000000e+00
    endloop
  endfacet
  facet normal  3.568221e-01 -9.341723e-01  0.000000e+00
    outer loop
      vertex   0.000000e+00 -1.618034e+00  1.000000e+00
      vertex   0.000000e+00 -1.618034e+00 -1.000000e+00
      vertex   1.618034e+00 -1.000000e+00  0.000000e+00
    endloop
  endfacet
  facet normal -3.568221e-01 -9.341723e-01  0.000000e+00
    outer loop
      vertex   0.000000e+00 -1.618034e+00 -1.000000e+00
      vertex   0.000000e+00 -1.618034e+00  1.000000e+00
      vertex  -1.618034e+00 -1.000000e+00  0.000000e+00
    endloop
  endfacet
  facet normal  9.341723e-01  0.000000e+00 -3.568221e-01
    outer loop
      vertex   1.618034e+00  1.000000e+00  0.000000e+00
      vertex   1.618034e+00 -1.000000e+00  0.000000e+00
      vertex   1.000000e+00  0.000000e+00 -1.618034e+00
    endloop
  endfacet
  facet normal  9.341723e-01 -0.000000e+00  3.568221e-01
    outer loop
      vertex   1.618034e+00 -1.000000e+00  0.000000e+00
      vertex   1.618034e+00  1.000000e+00  0.000000e+00
      vertex   1.000000e+00  0.000000e+00  1.618034e+00
    endloop
  endfacet
  facet normal -9.341723e-01  0.000000e+00  3.568221e-01
    outer loop
      vertex  -1.618034e+00  1.000000e+00  0.000000e+00
      vertex  -1.618034e+00 -1.000000e+00  0.000000e+00
      vertex  -1.000000e+00  0.000000e+00  1.618034e+00
    endloop
  endfacet
  facet normal -9.341723e-01  0.000000e+00 -3.568221e-01
    outer loop
      vertex  -1.618034e+00 -1.000000e+00  0.000000e+00
      vertex  -1.618034e+00  1.000000e+00  0.000000e+00
      vertex  -1.000000e+00  0.000000e+00 -1.618034e+00
    endloop
  endfacet
  facet normal  0.000000e+00 -3.568221e-01  9.341723e-01
    outer loop
      vertex   1.000000e+00  0.000000e+00  1.618034e+00
      vertex  -1.000000e+00  0.000000e+00  1.618034e+00
      vertex   0.000000e+00 -1.618034e+00  1.000000e+00
    endloop
  endfacet
  facet normal -0.000000e+00  3.568221e-01  9.341723e-01
    outer loop
      vertex  -1.000000e+00  0.000000e+00  1.618034e+00
      vertex   1.000000e+00  0.000000e+00  1.618034e+00
      vertex   0.000000e+00  1.618034e+00  1.000000e+00
    endloop
  endfacet
  facet normal  0.000000e+00  3.568221e-01 -9.341723e-01
    outer loop
      vertex   1.000000e+00  0.000000e+00 -1.618034e+00
      vertex  -1.000000e+00  0.000000e+00 -1.618034e+00
      vertex   0.000000e+00  1.618034e+00 -1.000000e+00
    endloop
  endfacet
  facet normal  0.000000e+00 -3.568221e-01 -9.341723e-01
    outer loop
      vertex  -1.000000e+00  0.000000e+00 -1.618034e+00
      vertex   1.000000e+00  0.000000e+00 -1.618034e+00
      vertex   0.000000e+00 -1.618034e+00 -1.000000e+00
    endloop
  endfacet
  facet normal  5.773503e-01  5.773503e-01  5.773503e-01
    outer loop
      vertex   0.000000e+00  1.618034e+00  1.000000e+00
      vertex   1.000000e+00  0.000000e+00  1.618034e+00
      vertex   1.618034e+00  1.000000e+00  0.000000e+00
    endloop
  endfacet
  facet normal -5.773503e-01  5.773503e-01  5.773503e-01
    outer loop
      vertex   0.000000e+00  1.618034e+00  1.000000e+00
      vertex  -1.618034e+00  1.000000e+00  0.000000e+00
      vertex  -1.000000e+00  0.000000e+00  1.618034e+00
    endloop
  endfacet
  facet normal  5.773503e-01  5.773503e-01 -5.773503e-01
    outer loop
      vertex   0.000000e+00  1.618034e+00 -1.000000e+00
      vertex   1.618034e+00  1.000000e+00  0.000000e+00
      vertex   1.000000e+00  0.000000e+00 -1.618034e+00
    endloop
  endfacet
  facet normal -5.773503e-01  5.773503e-01 -5.773503e-01
    outer loop
      vertex   0.000000e+00  1.618034e+00 -1.000000e+00
      vertex  -1.000000e+00  0.000000e+00 -1.618034e+00
      vertex  -1.618034e+00  1.000000e+00  0.000000e+00
    endloop
  endfacet
  facet normal  5.773503e-01 -5.773503e-01  5.773503e-01
    outer loop
      vertex   0.000000e+00 -1.618034e+00  1.000000e+00
      vertex   1.618034e+00 -1.000000e+00  0.000000e+00
      vertex   1.000000e+00  0.000000e+00  1.618034e+00
    endloop
  endfacet
  facet normal -5.773503e-01 -5.773503e-01  5.773503e-01
    outer loop
      vertex   0.000000e+00 -1.618034e+00  1.000000e+00
      vertex  -1.000000e+00  0.000000e+00  1.618034e+00
      vertex  -1.618034e+00 -1.000000e+00  0.000000e+00
    endloop
  endfacet
  facet normal  5.773503e-01 -5.773503e-01 -5.773503e-01
    outer loop
      vertex   0.000000e+00 -1.618034e+00 -1.000000e+00
      vertex   1.000000e+00  0.000000e+00 -1.618034e+00
      vertex   1.618034e+00 -1.000000e+00  0.000000e+00
    endloop
  endfacet
  facet normal -5.773503e-01 -5.773503e-01 -5.773503e-01
    outer loop
      vertex   0.000000e+00 -1.618034e+00 -1.000000e+00
      vertex  -1.618034e+00 -1.000000e+00  0.000000e+00
      vertex  -1.000000e+00  0.000000e+00 -1.618034e+00
    endloop
  endfacet
endsolid vcg
